PathFileType	4	(X/Y/Z)	G:\Shared drives\HIT\Data\HapticPilot\Subject1\Edited\walking_FB1_noFB1.trc
DataRate	CameraRate	NumFrames	NumMarkers	Units	OrigDataRate	OrigDataStartFrame	OrigNumFrames
50.00	50.00	      9	34	mm	50.00	1181	      3148
Frame#	Time	r_knee			r_shank(antsup)			r_ankle			r_calc			r_5meta			r_toe			L_knee			L_shank(ant_sup)			L_ankle			L_calc			L_5meta			L_toe			r_sh2			r_sh3			r_sh4			L_sh2			L_sh3			r_thigh1			r_thigh2			r_thigh3			r_thigh4			r_thigh5			L_thigh1			L_thigh2			L_thigh3			L_thigh4			r.ASIS			r.PSIS			L.ASIS			L.PSIS			C7			R_Shoulder			L_Shoulder			Sternum			
		X1	Y1	Z1	X2	Y2	Z2	X3	Y3	Z3	X4	Y4	Z4	X5	Y5	Z5	X6	Y6	Z6	X7	Y7	Z7	X8	Y8	Z8	X9	Y9	Z9	X10	Y10	Z10	X11	Y11	Z11	X12	Y12	Z12	X13	Y13	Z13	X14	Y14	Z14	X15	Y15	Z15	X16	Y16	Z16	X17	Y17	Z17	X18	Y18	Z18	X19	Y19	Z19	X20	Y20	Z20	X21	Y21	Z21	X22	Y22	Z22	X23	Y23	Z23	X24	Y24	Z24	X25	Y25	Z25	X26	Y26	Z26	X27	Y27	Z27	X28	Y28	Z28	X29	Y29	Z29	X30	Y30	Z30	X31	Y31	Z31	X32	Y32	Z32	X33	Y33	Z33	X34	Y34	Z34	

1181	23.600	1047.95239	406.59659	567.51538	1025.43884	405.59644	482.93317	721.98315	437.08069	247.12379	639.14368	471.63663	302.23456	716.65460	442.86951	107.75144	770.04053	505.35648	109.91882	1029.78601	703.75836	567.86536	1065.87549	692.86102	447.94418	987.87439	671.97290	107.07301	906.61530	627.83551	71.94064	1145.95789	633.64319	75.55137	1109.16394	695.05164	42.45341	939.07214	411.85214	399.61230	970.90802	399.88379	535.28687	882.19189	402.13693	460.82379	978.14130	717.49438	462.82022	971.02942	709.45837	340.22266	1024.65125	392.42648	888.88416	1060.81714	389.74149	779.81427	1024.13306	383.90500	733.90381	918.59009	398.91376	848.77899	961.87036	406.40381	740.23169	1056.96948	741.46375	845.69946	1087.02686	725.72070	711.04877	941.36578	749.29010	820.24695	976.28583	726.14960	689.73169	1015.08551	441.23642	1081.74121	828.05573	533.08997	1098.29614	1024.99426	695.41211	1099.02637	832.52411	615.44464	1103.31970	918.22424	587.60028	1597.93408	970.56683	420.23871	1560.40820	978.07568	767.66791	1550.49402	1055.85596	583.63623	1515.79016	
1182	23.620	1065.63281	404.98029	576.72388	1048.02722	404.96759	490.00806	756.55634	437.83829	239.58623	669.32172	474.21637	287.13644	763.16882	441.63074	100.65289	817.05487	503.35623	106.66021	1015.50262	701.84766	567.54529	1049.18176	690.65356	446.91061	963.83331	670.85114	107.70134	881.36285	627.04565	72.35921	1121.24207	633.16113	75.05914	1084.36621	694.87457	42.68093	966.15149	412.27264	402.21829	990.87402	395.20483	538.84723	906.17151	398.70642	459.93759	961.91235	716.33984	462.85223	952.15894	709.18842	341.36600	1027.70972	392.19846	896.93646	1067.86877	390.48853	788.31378	1032.71570	382.87231	741.30914	922.34576	397.94672	852.20789	970.12256	405.01849	745.29816	1052.05786	738.55157	844.97253	1078.01782	721.63281	709.46484	936.07031	750.34070	822.13281	967.33972	725.57159	691.27142	1011.27936	441.74573	1086.99805	825.48932	535.01135	1103.03638	1023.68573	695.87720	1100.83789	831.28009	617.36365	1107.42542	915.77161	588.63715	1600.69006	965.77997	420.63943	1563.91260	977.38538	768.02747	1554.37671	1053.76001	583.13733	1519.33020	
1183	23.640	1080.91187	403.54324	585.01257	1067.31592	403.56384	497.81335	794.01135	437.61423	229.50427	701.98486	476.81845	266.53595	815.65002	439.03198	92.36852	868.64069	500.27975	102.42187	1000.40839	700.50269	567.36029	1031.48938	688.49670	446.00464	939.53668	670.09662	108.25475	856.71588	626.62830	73.06949	1096.54492	632.56104	74.61726	1059.32153	694.57782	42.82583	991.71161	411.65814	404.64069	1006.79181	392.57077	542.15332	927.92572	397.11368	457.60468	944.99872	716.41010	463.32898	933.10248	708.74750	341.57614	1029.41125	391.58249	905.39594	1071.93213	388.20874	798.17847	1040.11279	381.83636	750.54193	925.36688	395.17761	856.36530	977.25836	401.96759	751.19995	1046.53918	735.99664	843.99554	1068.53198	718.22211	708.06537	929.68237	751.21710	824.82635	957.42401	725.47040	692.58490	1007.41077	442.06995	1092.05664	822.79279	536.65900	1107.56592	1022.76318	695.94672	1102.41052	830.10400	619.25043	1111.35242	913.47327	589.58429	1603.36108	961.39050	421.17923	1567.24121	977.93060	768.23083	1557.91846	1051.36365	582.33447	1522.24036	
1184	23.660	1092.17017	402.97531	594.00195	1083.43994	401.51205	505.23425	833.26630	437.44537	215.99431	738.14923	479.37689	241.45224	871.01044	434.68539	83.35305	923.14795	495.12296	97.74165	984.12396	699.46490	567.16144	1012.31335	687.30603	445.32648	915.09766	669.55145	108.98534	831.96759	626.95599	73.92551	1071.61121	632.62982	74.40208	1034.37170	694.46185	42.94048	1015.97205	410.37439	406.04965	1019.54688	391.91489	544.79797	947.76056	397.67035	453.84201	926.83716	716.15637	463.59482	913.25165	708.67212	342.20532	1029.77344	391.19949	913.79211	1077.93274	386.63867	809.97705	1046.30383	379.48349	759.41663	927.69086	391.38165	861.04468	983.41248	396.73291	757.77917	1040.49487	733.28479	842.84216	1057.12561	715.45392	706.00110	923.50977	752.13599	826.93561	946.48279	725.94525	693.80457	1003.52490	442.62521	1096.17358	820.42993	538.28381	1111.51953	1022.11694	695.40002	1103.29846	828.86389	620.69696	1115.01440	911.54016	590.30310	1605.56250	957.25580	421.61646	1569.83105	978.46423	767.96118	1561.14294	1049.25732	581.42419	1524.77307	
1185	23.680	1100.92358	401.70969	602.02252	1097.02087	399.75012	512.33246	875.17743	436.54477	200.42671	778.83038	481.78748	214.02434	927.98065	430.15735	73.51192	981.05255	488.53522	93.67743	967.54187	698.78363	566.76282	992.43250	686.43378	444.50900	890.76801	669.13873	109.53822	807.18042	626.20953	74.13040	1046.83435	631.97998	73.76276	1009.45203	694.19897	43.01100	1038.98230	408.17282	407.41437	1029.52600	393.92328	546.19128	966.30219	399.29794	449.16022	907.92535	715.89069	464.17209	892.37598	708.17560	342.83176	1028.45520	390.61560	921.79358	1079.18848	386.24323	818.38232	1051.61865	376.30426	768.64923	929.21466	387.02100	865.65424	988.04181	391.12985	763.94818	1033.49133	730.76044	841.20752	1046.37756	712.49664	704.25427	916.67780	752.83643	828.58008	935.37781	726.21478	694.85394	1000.22681	442.82791	1098.71680	817.73999	539.50537	1114.38452	1021.01691	694.62384	1103.16309	827.41327	621.73041	1117.55566	909.71021	590.93719	1607.12683	953.31165	421.88998	1571.65393	979.58887	767.39789	1563.53772	1047.52039	580.25391	1526.67334	
1186	23.700	1106.70642	400.41724	608.73022	1107.77820	398.13635	518.63361	920.03888	435.12842	183.93295	823.96820	483.75781	185.51131	986.62604	424.03934	64.44303	1038.73254	482.08023	89.25585	950.17603	698.21265	566.49030	972.26910	686.18982	443.83609	866.75470	668.94971	110.22378	782.30872	626.03613	74.47096	1023.78418	632.07367	74.77122	984.48645	694.09155	43.06729	1060.26477	405.38135	408.32513	1037.28638	396.95639	545.98517	983.71069	400.95306	443.13577	887.97992	715.44702	464.71384	870.91907	707.94739	343.67844	1027.79675	390.34018	928.01080	1080.68579	385.36673	825.92236	1055.44141	372.45667	775.96326	930.31152	382.37177	869.70496	991.62866	386.23529	769.41730	1025.80591	728.52393	839.07629	1034.49744	710.06995	701.95972	909.65839	754.65344	830.50427	923.18335	726.77191	695.58118	996.76843	443.26303	1100.44006	815.20245	539.82123	1116.28687	1019.50146	693.95337	1102.26184	825.78833	622.21259	1119.37646	908.38214	591.45648	1607.92847	949.61627	421.87317	1572.52869	981.24878	766.72803	1565.05957	1046.08069	578.87256	1527.67017	
1187	23.720	1109.27698	399.15198	612.96716	1115.42004	396.17010	522.95221	967.32440	433.00269	167.48438	873.54620	484.39304	157.54935	1047.14075	418.79031	56.85253	1097.72607	474.92508	87.41197	932.29907	697.88068	566.09106	952.11993	685.74670	443.41544	841.91840	668.15076	110.76183	757.56207	625.77423	75.07120	997.43457	632.09918	73.48623	959.48535	693.91772	42.90788	1080.11597	402.34528	408.03714	1042.49060	398.88681	542.84607	1000.32550	402.35736	434.74225	868.07849	715.22668	465.17664	849.41608	707.67981	344.31262	1027.07593	389.63492	932.38708	1081.84009	385.03629	831.08386	1057.99121	368.75729	781.19495	931.03894	378.04440	872.37207	994.46857	381.41843	774.04028	1017.89563	726.63849	836.63220	1022.10834	707.98358	699.32892	902.11725	754.98572	831.18713	910.94629	727.45428	696.32306	994.27753	442.91809	1101.59656	812.62634	539.46606	1117.29126	1016.72504	693.75745	1100.37878	823.71460	621.78473	1119.98132	907.53668	591.75879	1608.03137	946.08185	421.71191	1572.49268	982.97229	765.88586	1565.47534	1045.00037	577.24799	1527.84595	
1188	23.740	1107.85950	398.43427	613.95026	1119.99243	394.15747	524.31769	1016.79926	430.36981	152.41417	926.62372	485.09998	130.85745	1109.01758	412.93842	52.00365	1157.12634	467.17499	88.63702	914.38440	697.62616	565.81451	931.86597	685.61798	443.04095	817.45074	667.83423	111.41417	732.61505	625.63214	75.63462	973.30353	631.80145	73.05606	934.36359	694.18463	42.89007	1099.04102	399.39410	405.98376	1045.24536	398.92520	535.63354	1016.53796	402.79684	423.07651	848.02710	714.78906	466.08081	827.82275	707.58453	345.37936	1025.61157	388.64984	933.83246	1081.70398	385.00214	833.12836	1058.57385	368.09863	784.20166	929.91638	374.47986	873.50922	994.97906	379.45197	775.03937	1009.19543	725.38995	833.76715	1009.28778	706.35858	696.55432	893.84497	755.44324	831.56891	898.55365	727.24390	696.67773	991.97180	442.86868	1101.36487	810.54492	538.81665	1117.10352	1015.21924	693.38971	1098.44299	821.51190	620.95331	1119.48230	907.02795	591.96594	1607.22876	942.90015	421.41797	1571.59802	985.11920	764.96887	1564.77344	1044.09314	575.57507	1526.84875	
1189	23.760	1103.98291	397.58771	611.88538	1122.42346	392.34869	522.73120	1067.94153	427.06274	139.95689	982.42224	484.18314	107.98022	1170.75647	407.44147	50.98594	1215.88269	460.30566	93.06493	896.17444	697.50415	565.35565	911.09033	685.99158	442.80502	792.91553	667.56494	112.12298	708.13428	625.40057	76.37916	948.14075	632.11780	72.52731	909.47845	694.31299	42.81688	1116.11536	396.81802	402.69492	1047.05786	397.96094	524.54688	1032.25549	401.80823	409.46579	827.35309	714.46912	467.11731	805.74219	707.26624	346.61859	1022.95789	387.15765	932.28937	1079.82666	383.80099	831.97504	1056.71704	366.17465	782.90570	929.86200	372.90683	871.50018	993.31635	379.25412	773.76819	1000.43463	724.27850	830.95862	996.45490	705.25067	693.86078	885.85547	755.93628	832.17926	886.21936	727.01019	696.75769	990.01746	442.29684	1100.14221	808.48358	537.58875	1115.59204	1012.84308	692.91290	1095.89124	819.58484	619.69354	1117.50098	906.96252	591.98358	1605.45959	940.30109	420.86697	1569.83789	987.20258	763.87213	1563.07849	1043.58838	573.65900	1525.00671	
